<svg id="Layer_1" data-name="Layer 1" xmlns="http://www.w3.org/2000/svg" xmlns:xlink="http://www.w3.org/1999/xlink" viewBox="0 0 182 56"><defs><style>.cls-1{fill:#fff;}.cls-2{fill:url(#linear-gradient);}.cls-3{fill:url(#linear-gradient-2);}.cls-4,.cls-5{opacity:0.4;}.cls-12,.cls-4,.cls-5{isolation:isolate;}.cls-4{fill:url(#linear-gradient-3);}.cls-5{fill:url(#linear-gradient-4);}.cls-6{fill:#565f64;}.cls-7{fill:url(#linear-gradient-5);}.cls-8{fill:#a4aaae;fill-opacity:0.6;}.cls-9{fill:#333e46;}.cls-10{fill:url(#linear-gradient-6);}.cls-11{fill-opacity:0.8;fill:url(#linear-gradient-7);}.cls-12{opacity:0.8;fill:url(#linear-gradient-8);}.cls-13{fill:url(#linear-gradient-9);}.cls-14{fill:url(#linear-gradient-10);}.cls-15{fill:url(#linear-gradient-11);}.cls-16{fill:url(#linear-gradient-12);}.cls-17{fill:url(#linear-gradient-13);}.cls-18{fill:url(#linear-gradient-14);}.cls-19{fill:#fbfbfb;}.cls-20{fill:#333f47;}.cls-21{fill:none;stroke:#fff;stroke-miterlimit:10;stroke-width:0.25px;}</style><linearGradient id="linear-gradient" x1="7.34" y1="45.4" x2="49.05" y2="10.47" gradientTransform="matrix(1, 0, 0, -1, 0, 56)" gradientUnits="userSpaceOnUse"><stop offset="0" stop-color="#fff"/><stop offset="0.1" stop-color="#e7e8e6"/><stop offset="0.1" stop-color="#cdd0d0"/><stop offset="0.2" stop-color="#b5bbbd"/><stop offset="0.2" stop-color="#a5acaf"/><stop offset="0.3" stop-color="#9ba3a7"/><stop offset="0.3" stop-color="#98a0a4"/><stop offset="0.4" stop-color="#828a8f"/><stop offset="0.5" stop-color="#667075"/><stop offset="0.6" stop-color="#535c63"/><stop offset="0.7" stop-color="#475158"/><stop offset="0.8" stop-color="#434d54"/><stop offset="1" stop-color="#475157"/></linearGradient><linearGradient id="linear-gradient-2" x1="8.62" y1="44.39" x2="47.72" y2="11.55" gradientTransform="matrix(1, 0, 0, -1, 0, 56)" gradientUnits="userSpaceOnUse"><stop offset="0" stop-color="#0b1f2a"/><stop offset="0.2" stop-color="#333f47"/><stop offset="0.5" stop-color="#777f84"/><stop offset="0.5" stop-color="#81898d"/><stop offset="0.7" stop-color="#b3b8b8"/><stop offset="0.8" stop-color="#d2d5d3"/><stop offset="0.8" stop-color="#dee0dd"/><stop offset="1" stop-color="#fbfbfb"/></linearGradient><linearGradient id="linear-gradient-3" x1="1951.98" y1="11.18" x2="1971.01" y2="-41.13" gradientTransform="matrix(-1, 0, 0, 1, 1989.67, 43.01)" gradientUnits="userSpaceOnUse"><stop offset="0" stop-color="#e1e3e1"/><stop offset="0.1" stop-color="#c1c5c4"/><stop offset="0.3" stop-color="#9ba1a2"/><stop offset="0.5" stop-color="#7d8487"/><stop offset="0.7" stop-color="#687074" stop-opacity="0"/><stop offset="0.8" stop-color="#5b6469" stop-opacity="0"/><stop offset="1" stop-color="#576065" stop-opacity="0"/></linearGradient><linearGradient id="linear-gradient-4" x1="16.2" y1="48.7" x2="40.18" y2="7.17" gradientTransform="matrix(1, 0, 0, -1, 0, 56)" xlink:href="#linear-gradient-3"/><linearGradient id="linear-gradient-5" x1="39.05" y1="21.51" x2="37.57" y2="19.08" gradientTransform="matrix(1, 0, 0, -1, 0, 56)" gradientUnits="userSpaceOnUse"><stop offset="0" stop-color="#27343c"/><stop offset="1" stop-color="#00111e" stop-opacity="0"/></linearGradient><linearGradient id="linear-gradient-6" x1="34.78" y1="30.44" x2="32.35" y2="34.36" gradientTransform="matrix(1, 0, 0, -1, 0, 56)" gradientUnits="userSpaceOnUse"><stop offset="0.1" stop-color="#02131f"/><stop offset="0.9" stop-color="#02131f" stop-opacity="0"/></linearGradient><linearGradient id="linear-gradient-7" x1="28.18" y1="24.17" x2="24.53" y2="23.12" gradientTransform="matrix(1, 0, 0, -1, 0, 56)" gradientUnits="userSpaceOnUse"><stop offset="0.2" stop-color="#02131f"/><stop offset="0.9" stop-color="#02131f" stop-opacity="0"/></linearGradient><linearGradient id="linear-gradient-8" x1="18.45" y1="19.33" x2="17.93" y2="20.63" gradientTransform="matrix(1, 0, 0, -1, 0, 56)" gradientUnits="userSpaceOnUse"><stop offset="0" stop-color="#02131f"/><stop offset="0.1" stop-color="#02131f"/><stop offset="1" stop-color="#02131f" stop-opacity="0"/></linearGradient><linearGradient id="linear-gradient-9" x1="31.32" y1="40.78" x2="28.37" y2="40.44" gradientTransform="matrix(1, 0, 0, -1, 0, 56)" gradientUnits="userSpaceOnUse"><stop offset="0.3" stop-color="#02131f"/><stop offset="0.8" stop-color="#02131f" stop-opacity="0"/></linearGradient><linearGradient id="linear-gradient-10" x1="31.42" y1="40.83" x2="29.42" y2="40.57" gradientTransform="matrix(1, 0, 0, -1, 0, 56)" gradientUnits="userSpaceOnUse"><stop offset="0.4" stop-color="#27343c"/><stop offset="1" stop-color="#3b474e" stop-opacity="0"/></linearGradient><linearGradient id="linear-gradient-11" x1="0.07" y1="27.21" x2="24.32" y2="13.22" gradientTransform="matrix(1, 0, 0, -1, 0, 56)" gradientUnits="userSpaceOnUse"><stop offset="0" stop-color="#24303a" stop-opacity="0"/><stop offset="0" stop-color="#25323b" stop-opacity="0"/><stop offset="0.1" stop-color="#27343c"/></linearGradient><linearGradient id="linear-gradient-12" x1="28.15" y1="23.24" x2="28.15" y2="27.41" gradientTransform="matrix(1, 0, 0, -1, 0, 56)" gradientUnits="userSpaceOnUse"><stop offset="0.3" stop-color="#a5abaf"/><stop offset="1" stop-color="#a5abaf" stop-opacity="0"/></linearGradient><linearGradient id="linear-gradient-13" x1="41.79" y1="53.74" x2="41.79" y2="0.74" gradientTransform="matrix(1, 0, 0, -1, 0, 56)" gradientUnits="userSpaceOnUse"><stop offset="0" stop-color="#dee0dd"/><stop offset="0" stop-color="#c5c9c7"/><stop offset="0" stop-color="#9ea4a5"/><stop offset="0" stop-color="#82898c"/><stop offset="0" stop-color="#71797d"/><stop offset="0" stop-color="#6b7378"/><stop offset="0.2" stop-color="#333f47"/><stop offset="0.5" stop-color="#27343c"/><stop offset="0.8" stop-color="#333f47"/><stop offset="1" stop-color="#434d54"/></linearGradient><linearGradient id="linear-gradient-14" x1="50.17" y1="48.71" x2="38.44" y2="31.5" gradientTransform="matrix(1, 0, 0, -1, 0, 56)" gradientUnits="userSpaceOnUse"><stop offset="0.7" stop-color="#27343c"/><stop offset="0.7" stop-color="#2b373f"/><stop offset="0.7" stop-color="#36424a"/><stop offset="0.7" stop-color="#49545b"/><stop offset="0.8" stop-color="#646d73" stop-opacity="0"/><stop offset="0.8" stop-color="#868d92" stop-opacity="0"/><stop offset="0.8" stop-color="#b0b5b8" stop-opacity="0"/><stop offset="0.8" stop-color="#e1e3e4" stop-opacity="0"/><stop offset="0.8" stop-color="#fff" stop-opacity="0"/></linearGradient></defs><path class="cls-1" d="M168.68,36.84a.5.5,0,0,0-.5-.5h-8.26a.5.5,0,0,0-.5.5v.71a.51.51,0,0,0,.5.51h5.2c.35,0,.33.15.33.56v.09c0,.4,0,.49-.33.49H154.53a.5.5,0,0,1-.5-.5V35.63a.5.5,0,0,1,.5-.5h13.64a.5.5,0,0,0,.5-.5V33.5a.5.5,0,0,0-.5-.5H151.39a.5.5,0,0,0-.5.5V41a.5.5,0,0,0,.5.5h16.78a.5.5,0,0,0,.5-.5V36.75"/><path class="cls-1" d="M141.67,38.9a1.21,1.21,0,0,1-.68.29h-2.13a1.21,1.21,0,0,1-.68-.29l-4.1-2.59c-.23-.15-.43,0-.43.23V41a.5.5,0,0,1-.5.5H131a.5.5,0,0,1-.5-.5V33.5a.5.5,0,0,1,.5-.5h2.29a1.18,1.18,0,0,1,.68.27l5.59,3.62a.6.6,0,0,0,.7,0l5.59-3.62a1.18,1.18,0,0,1,.67-.27h2.29a.5.5,0,0,1,.5.5V41a.5.5,0,0,1-.5.5h-2.14a.5.5,0,0,1-.5-.5V36.54c0-.28-.19-.38-.43-.23l-4.08,2.58Z"/><path class="cls-1" d="M112,41.46h-2.77a.24.24,0,0,1-.2-.38l6-7.75a.77.77,0,0,1,.55-.33H128.4a.58.58,0,0,1,.56.63V41a.5.5,0,0,1-.5.5h-2.14a.5.5,0,0,1-.5-.5V39.9c0-.3,0-.41-.33-.41H114.22a.68.68,0,0,0-.5.33l0,0L112.83,41a1.14,1.14,0,0,1-.79.5Zm5.56-6.33a.5.5,0,0,0-.36.22l-1.32,1.71c-.1.12,0,.22.11.22h9.54c.3,0,.33-.12.33-.41V35.69c0-.41,0-.56-.33-.56Z"/><path class="cls-1" d="M106.59,41.46a1.14,1.14,0,0,0,.79-.5l5.76-7.46c.21-.28.11-.5-.17-.5h-1.15a.77.77,0,0,0-.55.34l-6,7.75a.24.24,0,0,0,.2.38Z"/><path class="cls-1" d="M103.19,41.46A1.14,1.14,0,0,0,104,41l5.76-7.46c.21-.28.11-.5-.16-.5h-1.64a.77.77,0,0,0-.55.34l-6,7.75a.24.24,0,0,0,.2.38Z"/><path class="cls-1" d="M97.23,41.46a.24.24,0,0,1-.2-.38l6-7.75a.77.77,0,0,1,.55-.34H106c.28,0,.38.23.16.5L100.37,41a1.14,1.14,0,0,1-.79.5Z"/><path class="cls-1" d="M92.22,41.46a.24.24,0,0,1-.2-.38l6-7.75a.77.77,0,0,1,.55-.34h3.2c.28,0,.38.23.17.5L96.16,41a1.14,1.14,0,0,1-.79.5Z"/><path class="cls-1" d="M83.6,41.46a.24.24,0,0,1-.2-.38l6-7.75a.77.77,0,0,1,.55-.34h7c.28,0,.38.23.16.5L91.36,41a1.13,1.13,0,0,1-.79.5Z"/><path class="cls-1" d="M109,46.39h.72a4.9,4.9,0,0,1,.71,0,1.38,1.38,0,0,1,.91.53,2.1,2.1,0,0,1,0,2.42,1.36,1.36,0,0,1-1,.52,6.32,6.32,0,0,1-.73,0H109Zm.55,3.07h.29a3.28,3.28,0,0,0,.5,0,.84.84,0,0,0,.61-.4,1.66,1.66,0,0,0,.22-.88,1.53,1.53,0,0,0-.24-.88.87.87,0,0,0-.61-.38,3.93,3.93,0,0,0-.6,0h-.15Z"/><path class="cls-1" d="M112.46,46.39h.76a5.51,5.51,0,0,1,.67,0,1.06,1.06,0,0,1,.69.35,1,1,0,0,1,.23.67,1,1,0,0,1-.68,1l.87,1.52h-.65l-.81-1.43H113v1.43h-.55ZM113,48h.25a2.15,2.15,0,0,0,.64-.07.49.49,0,0,0,.27-.22.62.62,0,0,0,.08-.32.49.49,0,0,0-.28-.49,1,1,0,0,0-.38-.08H113Z"/><path class="cls-1" d="M116.41,49.93h-.55V46.39h.55Z"/><path class="cls-1" d="M117.12,46.39h.59l.92,2.92.92-2.92h.58l-1.23,3.56h-.57Z"/><path class="cls-1" d="M121.4,49.93h-.55V46.39h.55Z"/><path class="cls-1" d="M122.61,46.39h.59l1.56,2.71V46.39h.52v3.55h-.57l-1.58-2.7v2.7h-.52Z"/><path class="cls-1" d="M127.72,48.14h1.18v1.47a2.11,2.11,0,0,1-1.24.39,1.46,1.46,0,0,1-1.11-.44,1.5,1.5,0,0,1-.35-.59,2.6,2.6,0,0,1-.12-.81,1.94,1.94,0,0,1,.48-1.41,1.5,1.5,0,0,1,1.73-.27,1.13,1.13,0,0,1,.57,1h-.49a.7.7,0,0,0-.75-.65.8.8,0,0,0-.67.3,1.66,1.66,0,0,0-.3,1.05,1.64,1.64,0,0,0,.31,1.06.85.85,0,0,0,.7.3,1.43,1.43,0,0,0,.77-.23v-.72h-.72Z"/><path class="cls-1" d="M131.64,46.39h.71a3.45,3.45,0,0,1,1,.1.87.87,0,0,1,.5.41,1.17,1.17,0,0,1,.14.58,1,1,0,0,1-.29.76,1.14,1.14,0,0,1-.74.29l-.54,0h-.24v1.38h-.55Zm.55,1.69h.23a2.69,2.69,0,0,0,.64-.05.47.47,0,0,0,.29-.23.63.63,0,0,0,.08-.32.53.53,0,0,0-.3-.54,2,2,0,0,0-.71-.09h-.23Z"/><path class="cls-1" d="M135.32,47.86h1.42v.47h-1.42v1.13h1.6v.47h-2.15V46.39h2.1v.47h-1.55Z"/><path class="cls-1" d="M137.87,46.39h.76a5.5,5.5,0,0,1,.67,0,1.06,1.06,0,0,1,.69.35,1,1,0,0,1,.23.67,1,1,0,0,1-.68,1l.87,1.52h-.65L139,48.51h-.55v1.43h-.55Zm.55,1.64h.25a2.15,2.15,0,0,0,.64-.07.49.49,0,0,0,.27-.22.62.62,0,0,0,.08-.32.49.49,0,0,0-.28-.49,1,1,0,0,0-.38-.08h-.57Z"/><path class="cls-1" d="M141.87,47.86h1.42v.47h-1.42v1.6h-.55V46.39h2.1v.47h-1.55Z"/><path class="cls-1" d="M145.54,46.32a1.39,1.39,0,0,1,1.05.45,2.27,2.27,0,0,1,0,2.78,1.46,1.46,0,0,1-2.11,0,2,2,0,0,1-.48-1.42,2.5,2.5,0,0,1,.13-.78,1.47,1.47,0,0,1,.63-.82A1.43,1.43,0,0,1,145.54,46.32Zm0,.47a.78.78,0,0,0-.68.34,1.7,1.7,0,0,0-.28,1,1.78,1.78,0,0,0,.28,1,.84.84,0,0,0,1.35,0,1.74,1.74,0,0,0,.28-1,1.71,1.71,0,0,0-.28-1A.79.79,0,0,0,145.54,46.8Z"/><path class="cls-1" d="M148,46.39h.76a5.5,5.5,0,0,1,.67,0,1.06,1.06,0,0,1,.69.35,1,1,0,0,1,.23.67,1,1,0,0,1-.68,1l.87,1.52h-.65l-.81-1.43h-.55v1.43H148Zm.55,1.64h.25a2.15,2.15,0,0,0,.64-.07.49.49,0,0,0,.27-.22.62.62,0,0,0,.08-.32.49.49,0,0,0-.28-.49,1,1,0,0,0-.38-.08h-.57Z"/><path class="cls-1" d="M151.46,46.39h.79l.88,3,.88-3h.78v3.55h-.5V47l-.88,2.94h-.56L152,47v2.94h-.5Z"/><path class="cls-1" d="M156.79,46.38h.53l1.21,3.56H158l-.26-.83h-1.29l-.27.83h-.56Zm.77,2.25-.5-1.59-.5,1.59Z"/><path class="cls-1" d="M159.33,46.39h.59l1.56,2.71V46.39H162v3.55h-.57l-1.58-2.7v2.7h-.52Z"/><path class="cls-1" d="M165.63,47.46h-.49a.7.7,0,0,0-.73-.66.78.78,0,0,0-.67.35,1.74,1.74,0,0,0-.27,1,1.71,1.71,0,0,0,.28,1,.78.78,0,0,0,.66.33q.68,0,.76-.85h.5a1.74,1.74,0,0,1-.21.78,1.11,1.11,0,0,1-1,.55,1.41,1.41,0,0,1-1.05-.43,2.28,2.28,0,0,1,.06-2.88,1.39,1.39,0,0,1,1-.37,1.31,1.31,0,0,1,.64.16A1.15,1.15,0,0,1,165.63,47.46Z"/><path class="cls-1" d="M167.08,47.86h1.42v.47h-1.42v1.13h1.6v.47h-2.15V46.39h2.1v.47h-1.55Z"/><path id="outer" class="cls-2" d="M55.39,28.06A27.2,27.2,0,1,1,28.19.87,27.18,27.18,0,0,1,55.39,28.06ZM28.19,2.52A25.55,25.55,0,1,0,53.74,28.06,25.48,25.48,0,0,0,28.19,2.52Z"/><path class="cls-3" d="M28.19,2.52A25.55,25.55,0,1,0,53.74,28.06,25.48,25.48,0,0,0,28.19,2.52Zm0,49.44a23.9,23.9,0,1,1,23.9-23.9A23.88,23.88,0,0,1,28.19,52Z"/><path class="cls-4" d="M28.19,55.26A27.2,27.2,0,1,0,1,28.06a27.18,27.18,0,0,0,27.2,27.2Zm0-55A27.81,27.81,0,1,1,.39,28.06,27.89,27.89,0,0,1,28.19.26Z"/><path class="cls-1" d="M2.3,28.15a26,26,0,0,1,25.89-26h0a25.92,25.92,0,0,1,25.89,26h0A25.83,25.83,0,0,1,28.19,54h0A25.83,25.83,0,0,1,2.3,28.15Zm8.08-17.9a25.3,25.3,0,0,0-7.47,17.9h0A25.23,25.23,0,0,0,10.29,46h0a25.59,25.59,0,0,0,17.9,7.39h0A24.87,24.87,0,0,0,46,46h0a24.87,24.87,0,0,0,7.39-17.81h0A25.59,25.59,0,0,0,46,10.25h0A24.94,24.94,0,0,0,28.19,2.78h0a24.94,24.94,0,0,0-17.81,7.47Z"/><path class="cls-5" d="M28.19,52A24,24,0,0,1,11.25,11.12,24,24,0,1,1,45.14,45a23.79,23.79,0,0,1-16.94,7Zm0-.7A23.2,23.2,0,1,0,11.77,11.73,22.59,22.59,0,0,0,4.91,28.06,23.29,23.29,0,0,0,28.19,51.35Z"/><path class="cls-1" d="M49.31,39.36,32.1,25.72,28.19,3.39a1.48,1.48,0,0,0-.78.7L24.63,25.81,7.34,39.1s-.35.43-.52.7a1.69,1.69,0,0,0-.09.7h0l21.38-8.78,21.38,8.78h0A1.24,1.24,0,0,0,49.31,39.36Z"/><path class="cls-6" d="M28.37,28.76l-.17,4,19.64,7.91a1.56,1.56,0,0,0,1.74-.17L28.63,28.67A.17.17,0,0,0,28.37,28.76Z"/><path class="cls-7" d="M28.37,28.76a20.76,20.76,0,0,0,2.43,3.39,20.07,20.07,0,0,0,4.26,3.39l12.77,5.13a1.56,1.56,0,0,0,1.74-.17L28.63,28.67A.17.17,0,0,0,28.37,28.76Z"/><path class="cls-8" d="M49.48,39.71c0-.09-.09-.17-.17-.35L31.41,26.24,29,27.8s.17.09.26,0a2.17,2.17,0,0,1,1.3,0c.43.17,18.94,12,18.94,12Z"/><path class="cls-9" d="M48.87,38.93,32.19,25.72h0l-.78.52,17.9,13.21A2.3,2.3,0,0,0,48.87,38.93Z"/><path class="cls-6" d="M28.63,27.46l-.09.09s0,.17.17.09,2.61-1.39,3.48-1.91l-3-20.85a1.51,1.51,0,0,0-1-1.39l.35,24.16Z"/><path class="cls-8" d="M27.15,4.86V6L25.24,25.2a.79.79,0,0,0,.35.7l1.13.87.78-21.2.09-1.65A1.41,1.41,0,0,0,27.15,4.86Z"/><path class="cls-8" d="M26.11,27.11l-1-.87L7.43,39s-.52.35-.61.7h0l.61-.35h0L25.93,27.72C26.28,27.54,26.37,27.37,26.11,27.11Z"/><path class="cls-6" d="M27.93,28.76c0-.09-.09-.17-.17-.09l-21,11.9a1.75,1.75,0,0,0,1.74.17l19.64-7.91Z"/><path class="cls-10" d="M28.54,27.54l.09-.09-.09.09h0a.09.09,0,0,0,.09.09h.09c.09-.09,2.61-1.39,3.48-1.91l-.35-2.52h0L29.15,4.86a1.06,1.06,0,0,0-.26-.78s1.3,17.55,1.3,19.46A5.67,5.67,0,0,1,28.54,27.54Z"/><path class="cls-11" d="M27.93,28.76c0-.09-.09-.17-.17-.09l-21,11.9a1.75,1.75,0,0,0,1.74.17l19.64-7.91Z"/><path class="cls-12" d="M8.47,40.66l19.64-7.91-.17-3.82a5,5,0,0,1-2.61,3h0c-1.22.7-12.86,6.43-17,8.43a5.49,5.49,0,0,1-.78.35A1,1,0,0,0,8.47,40.66Z"/><path class="cls-13" d="M28.63,27.46l-.09.09s0,.17.17.09,2.61-1.39,3.48-1.91l-3-20.85a1.51,1.51,0,0,0-1-1.39l.35,24.16Z"/><path class="cls-14" d="M28.63,27.46l-.09.09s0,.17.17.09,2.61-1.39,3.48-1.91l-3-20.85a1.51,1.51,0,0,0-1-1.39l.35,24.16Z"/><path class="cls-15" d="M4.82,38.84c-.61-1.39-4.08-8.17-.26-21.2H3.08a43,43,0,0,0-1.74,6.52S1.17,25,1.08,26A19.77,19.77,0,0,0,1,28.06a22.75,22.75,0,0,0,1.3,8.26A25.37,25.37,0,0,0,9.42,47.53a24.93,24.93,0,0,0,10.95,5.13C19.76,52.57,9.34,48.14,4.82,38.84Z"/><path class="cls-16" d="M28.54,28.59h-.78c.09,0,.17,0,.17.09l.17,4h.09l.17-4c0-.09.09-.17.17-.09Z"/><path class="cls-17" d="M36.88,2.26c9.12,3.48,17.73,13,17.73,25.11a26.37,26.37,0,0,1-26.42,26.5v1.39a27.22,27.22,0,0,0,8.69-53Z"/><path class="cls-18" d="M51.48,17.81A24.73,24.73,0,0,0,30.89,3H30.8c10.51,1.91,17.21,8.78,19.55,16V19A27.28,27.28,0,0,1,52,28a23.76,23.76,0,0,1-1.91,9.56c-.09.43-.17,1-.26,1h1.39C55.39,30.67,53.57,22.76,51.48,17.81Z"/><path class="cls-19" d="M2.3,28.15a26,26,0,0,1,25.89-26h0a25.92,25.92,0,0,1,25.89,26h0A25.83,25.83,0,0,1,28.19,54h0A25.83,25.83,0,0,1,2.3,28.15Zm8.08-17.9a25.3,25.3,0,0,0-7.47,17.9h0A25.23,25.23,0,0,0,10.29,46h0a25.59,25.59,0,0,0,17.9,7.39h0A24.87,24.87,0,0,0,46,46h0a24.87,24.87,0,0,0,7.39-17.81h0A25.59,25.59,0,0,0,46,10.25h0A24.94,24.94,0,0,0,28.19,2.78h0a24.94,24.94,0,0,0-17.81,7.47Z"/><path class="cls-20" d="M7.25,39.19h0L25,26.41a18,18,0,0,0,2.69,1.22c.17.09.17-.09.17-.09l-2.17-1.82a.79.79,0,0,1-.35-.7L27.41,4.08c-.09.09-.09.26-.17.35a.78.78,0,0,0-.09.43l-3,20.94L7.43,38.93C7.34,39,7.25,39.1,7.25,39.19Z"/><line class="cls-21" x1="181" y1="33" x2="181" y2="50"/></svg>